<svg xmlns="http://www.w3.org/2000/svg" width="18.2" height="12.024" viewBox="0 0 18.2 12.024"><defs><style>.a{fill:#1492e6;stroke:#1492e6;stroke-width:0.5px;}</style></defs><path class="a" d="M24.648,32.449a.3.3,0,0,0,.016-.094V21.447a.3.3,0,0,0-.016-.095s0-.008,0-.012a.306.306,0,0,0-.057-.094l0-.006,0,0a.309.309,0,0,0-.091-.066l-.007,0a.3.3,0,0,0-.1-.025H7.252a.307.307,0,0,0-.106.026l-.006,0a.3.3,0,0,0-.092.067l0,0s0,0,0,.006a.308.308,0,0,0-.057.095s0,.008,0,.013a.3.3,0,0,0-.016.095V32.356a.3.3,0,0,0,.017.1l0,.012a.308.308,0,0,0,.057.095l0,.005,0,0a.311.311,0,0,0,.033.029l.015.012a.285.285,0,0,0,.043.024l.011.006a.308.308,0,0,0,.121.025H24.356a.3.3,0,0,0,.121-.025l.017-.009a.314.314,0,0,0,.037-.021l.018-.015a.283.283,0,0,0,.03-.026l.005,0,0-.006a.308.308,0,0,0,.056-.094A.113.113,0,0,0,24.648,32.449ZM7.58,22.145l5.184,4.735L7.58,31.653Zm10.625,4.5a.294.294,0,0,0-.062.045c-.007.007-.009.017-.015.025l-2.314,2.114L8.066,21.755h15.5Zm-4.984.649,2.386,2.179a.308.308,0,0,0,.415,0l2.356-2.152,5.183,4.723H8.061Zm5.614-.39,5.213-4.762v9.513Z" transform="translate(-6.714 -20.889)"/></svg>