<svg xmlns="http://www.w3.org/2000/svg" width="40.833" height="41.5" viewBox="0 0 40.833 41.5"><defs><style>.a{fill:#607698;stroke:#607698;stroke-miterlimit:10;stroke-width:0.5px;}</style></defs><g transform="translate(-28.792 -25.04)"><g transform="translate(29.042 25.29)"><rect class="a" width="1.227" height="0.889" transform="translate(6.13 11.308)"/><path class="a" d="M98.445,54.8a15.536,15.536,0,0,0-3.268-14.156c-.2-.23-.405-.455-.618-.674a15.473,15.473,0,0,0-4.845-3.361l-.358.813a14.569,14.569,0,0,1,4.362,2.966q.307.3.594.62A20.481,20.481,0,0,1,89.2,42.62c-.066-.265-.135-.525-.207-.779a16.006,16.006,0,0,0-1.679-4.012c1.44-2.1,2.83-4.56,2.83-6.219a6.32,6.32,0,1,0-12.641,0,9.8,9.8,0,0,0,1.611,4.309,15.426,15.426,0,0,0-1.807.651H67.12v.889h8.443a15.446,15.446,0,0,0-3.186,2.508q-.32.328-.619.674a15.476,15.476,0,0,0-2.429,3.809h-7.1v.889h6.734a15.47,15.47,0,0,0-.522,1.669H65.2V47.9h3.049a15.536,15.536,0,0,0,.4,7.427H61.518v.889h7.434a15.593,15.593,0,0,0,.849,1.877H66.677v.889h3.64a15.641,15.641,0,0,0,1.634,2.169c.087.1.175.193.266.288a15.451,15.451,0,0,0,10.353,4.829c.178.011.356.019.536.022.122,0,.243,0,.365,0l.229,0,.1,0c.07,0,.142,0,.216-.009l.064,0,.005,0a15.475,15.475,0,0,0,10.654-4.836c.075-.078.148-.158.22-.238a15.493,15.493,0,0,0,2.953-4.772l-.827-.324a14.6,14.6,0,0,1-2.021,3.583,20.648,20.648,0,0,0-5.611-1.853A35.475,35.475,0,0,0,90.12,51.1h7.953a14.675,14.675,0,0,1-.487,3.468Zm-9.217-4.586H84.267v-6.2a32.074,32.074,0,0,0,4.245-.378A34.223,34.223,0,0,1,89.228,50.212Zm-4.961-7.084v-1.32c.289-.339,1.08-1.286,1.994-2.509.161-.216.325-.441.491-.672a16.946,16.946,0,0,1,1.56,4.145A31.375,31.375,0,0,1,84.267,43.129Zm-.889.009a32.077,32.077,0,0,1-4.118-.273c.066-.265.134-.525.206-.779a15.822,15.822,0,0,1,1.4-3.5c1.12,1.562,2.172,2.819,2.514,3.222v1.328Zm-4.316.6a32.583,32.583,0,0,0,4.316.293v6.186H78.368A34.337,34.337,0,0,1,79.063,43.733ZM83.378,51.1v2.874h.889V51.1h4.964a34.591,34.591,0,0,1-.657,6.581A33.216,33.216,0,0,0,79,57.588a34.636,34.636,0,0,1-.637-6.486h5.014ZM78.391,31.61a5.432,5.432,0,1,1,10.863,0c0,1.534-1.45,3.98-2.9,6.038-.188.267-.377.53-.562.781-.812,1.106-1.561,2.03-1.974,2.528C82.039,38.826,78.391,33.975,78.391,31.61Zm1.2,5.1c.1.154.2.307.3.459.137.211.276.419.417.623a17.075,17.075,0,0,0-1.937,4.941A21.1,21.1,0,0,1,72.622,41q.287-.319.593-.619A14.541,14.541,0,0,1,79.594,36.708ZM72.031,41.7A20.889,20.889,0,0,0,77.41,43.46q.377.075.763.139a35.2,35.2,0,0,0-.694,6.614h-8.6A14.6,14.6,0,0,1,72.031,41.7Zm-3.165,9.4h8.609a35.534,35.534,0,0,0,.647,6.621q-.411.069-.81.149a20.492,20.492,0,0,0-5.424,1.814A14.53,14.53,0,0,1,68.867,51.1Zm4.173,9.908c-.2-.2-.39-.409-.576-.621a20.737,20.737,0,0,1,5.846-1.8,22.187,22.187,0,0,0,.884,2.927,10.044,10.044,0,0,0,2.292,3.75q-.518-.07-1.024-.178A14.591,14.591,0,0,1,73.04,61.009Zm6.984.188a21.177,21.177,0,0,1-.833-2.739,32.476,32.476,0,0,1,9.19.091,21.448,21.448,0,0,1-.769,2.539c-.978,2.6-2.3,4.164-3.616,4.3h-.073l-.006,0-.21.005C82.371,65.337,81.028,63.807,80.024,61.2Zm6.217,3.94a10.515,10.515,0,0,0,2.2-3.736c.227-.6.432-1.242.614-1.917.07-.256.136-.517.2-.782a20.035,20.035,0,0,1,5.226,1.69q-.279.32-.576.622A14.573,14.573,0,0,1,86.241,65.137Zm3.875-14.924a35.053,35.053,0,0,0-.719-6.726,21.07,21.07,0,0,0,5.5-1.781,14.608,14.608,0,0,1,3.163,8.507H90.116Z" transform="translate(-58.632 -25.29)"/><rect class="a" width="1.795" height="0.889" transform="translate(0.148 19.16)"/><rect class="a" width="1.48" height="0.889" transform="translate(0 30.021)"/><rect class="a" width="1.48" height="0.889" transform="translate(5.227 32.798)"/><path class="a" d="M278.229,57.31a3.459,3.459,0,1,0,3.459,3.459A3.463,3.463,0,0,0,278.229,57.31Zm0,6.03a2.571,2.571,0,1,1,2.571-2.571A2.574,2.574,0,0,1,278.229,63.34Z" transform="translate(-252.935 -54.465)"/></g></g></svg>