<svg xmlns="http://www.w3.org/2000/svg" width="41" height="41" viewBox="0 0 41 41"><defs><style>.a,.b{fill:none;}.b{stroke:#607698;stroke-miterlimit:10;stroke-width:1.5px;}</style></defs><rect class="a" width="41" height="41"/><path class="b" d="M43.28,19.64a1.64,1.64,0,0,0-3.28,0v12.3a1.64,1.64,0,1,0,3.28,0Z" transform="translate(-7.2 -3.24)"/><path class="b" d="M26.74,46.28a1.64,1.64,0,1,0,0-3.28h-4.1a1.64,1.64,0,1,0,0,3.28Z" transform="translate(-3.78 -7.74)"/><path class="b" d="M8,15.94a13.94,13.94,0,1,1,27.88,0" transform="translate(-1.44 -0.36)"/><path class="b" d="M44,20c2.265,0,4.1,2.753,4.1,6.15S46.265,32.3,44,32.3" transform="translate(-7.92 -3.6)"/><path class="b" d="M6,19.64a1.64,1.64,0,0,1,3.28,0v12.3a1.64,1.64,0,1,1-3.28,0Z" transform="translate(-1.08 -3.24)"/><path class="b" d="M5.1,20C2.836,20,1,22.753,1,26.15S2.836,32.3,5.1,32.3" transform="translate(-0.18 -3.6)"/><path class="b" d="M39.84,37c0,4.1-2.46,6.56-6.56,6.56H30" transform="translate(-5.4 -6.66)"/></svg>