<svg xmlns="http://www.w3.org/2000/svg" width="44.5" height="44.5" viewBox="0 0 44.5 44.5"><defs><style>.a{fill:#607698;stroke:#dee5f2;stroke-width:3.5px;}</style></defs><g transform="translate(1.75 1.75)"><path class="a" d="M38.438,17.938H35.616A15.346,15.346,0,0,0,23.063,5.384V2.563a2.562,2.562,0,1,0-5.125,0V5.384A15.346,15.346,0,0,0,5.384,17.938H2.563a2.563,2.563,0,1,0,0,5.125H5.384A15.346,15.346,0,0,0,17.938,35.616v2.821a2.563,2.563,0,0,0,5.125,0V35.616A15.346,15.346,0,0,0,35.616,23.063h2.821a2.563,2.563,0,0,0,0-5.125ZM20.5,30.75A10.25,10.25,0,1,1,30.75,20.5,10.25,10.25,0,0,1,20.5,30.75Z"/><path class="a" d="M41.125,36a5.125,5.125,0,1,0,5.125,5.125A5.125,5.125,0,0,0,41.125,36Z" transform="translate(-20.625 -20.625)"/></g></svg>