<svg xmlns="http://www.w3.org/2000/svg" width="8.021" height="16.01" viewBox="0 0 8.021 16.01"><defs><style>.a{fill:#0ba630;}</style></defs><g transform="translate(-13.48 -30.171) rotate(20)"><g transform="translate(23.31 24.629) rotate(-30)"><path class="a" d="M3.415,0C2.7.081.078,1.277,0,7.446c-.08,6.5,2.694,7.865,3.422,7.851V11c-.6,0-.719-.652-.856-2a15.326,15.326,0,0,1,0-3.088c.082-.769.225-1.519.852-1.519Z" transform="translate(0 0)"/><path class="a" d="M1.216,4.3a.476.476,0,0,0,.476-.479l0,0s0-3.345,0-3.347A.475.475,0,0,0,1.216,0H0V4.3s1.213,0,1.214,0Z" transform="translate(3.752 11.001)"/><path class="a" d="M1.216,4.4a.476.476,0,0,0,.476-.479l0,0s0-3.442,0-3.444A.475.475,0,0,0,1.216,0H0V4.4s1.213,0,1.214,0Z" transform="translate(3.752 0)"/></g></g></svg>