<svg xmlns="http://www.w3.org/2000/svg" width="657.773" height="379.279" viewBox="0 0 657.773 379.279"><defs><style>.a{fill:#b1c7ef;}.b{fill:#d4deef;}</style></defs><g transform="translate(-106.251 -100.004)"><path class="a" d="M452.563,276.243a21.316,21.316,0,0,1-17.731,2.741,2.529,2.529,0,0,1-1.689-1.108c-.457-.937.271-2,.4-3.03.377-2.971-3.852-4.252-5.2-6.924a9.111,9.111,0,0,1-.665-3.458c-.823-10.452-6.266-19.87-10.853-29.3a3.649,3.649,0,0,1-.53-2.184c.14-.748,1-1.4,1.668-1.027A3.792,3.792,0,0,0,420.3,236.4c.8-3.041,1.23-7.036-1.495-8.6a6.834,6.834,0,0,0-3.106-.679,59.917,59.917,0,0,0-12.591.7,3.075,3.075,0,0,1-2.059-.132,4.832,4.832,0,0,1-1.187-1.424c-1.021-1.366-3.741-2.107-5.186-.917-1.6,1.323-.38,4.2-3.449,4.6-1.741.226-3.41-.669-4.935-1.536a15.4,15.4,0,0,1-4.492-3.333,6.165,6.165,0,0,0-1.359-1.457c-1.087-.682-2.483-.313-3.764-.327s-2.846-.944-2.5-2.176a3.921,3.921,0,0,1,.606-1.024c1.613-2.473-.523-5.995-3.334-6.889s-5.851,0-8.668.884q-6.332,2-12.671,4a10.387,10.387,0,0,1-4.914.714c-1.41-.258-2.89-1.095-4.18-.467-1.748.85-1.466,3.455-2.522,5.088-1.01,1.561-3.162,2.062-4.2,3.606-1.206,1.787-.488,4.172-.614,6.325-.247,4.148-3.656,7.3-6.656,10.177s-6.043,6.628-5.273,10.713a32.945,32.945,0,0,1,.917,3.71,9.529,9.529,0,0,1-.488,3.114q-1.317,4.822-2.637,9.645a150.062,150.062,0,0,0,9.767,15.077,26.94,26.94,0,0,0,6.039,6.426,10.364,10.364,0,0,0,8.377,1.867,25.176,25.176,0,0,1,3.789-1.143c1.836-.191,3.639.673,5.479.592,2.149-.091,4.015-1.431,5.743-2.714s3.6-2.608,5.753-2.671,4.469,1.8,4.012,3.9a4.032,4.032,0,0,0-.257,1.383c.139,1,1.435,1.344,2.431,1.209s2.066-.505,2.971-.064c1.233.606,1.372,2.345.965,3.658-.553,1.78-1.745,3.281-2.535,4.966s-1.119,3.828.007,5.312a14.8,14.8,0,0,0,2.187,1.884,10.154,10.154,0,0,1,2.5,4.058,35.948,35.948,0,0,1,1.666,20.242c-.617,2.968-2.5,5.388-3.1,8.129-.669,3.093,1.8,6.548,3.243,9.067a29.046,29.046,0,0,1,3.789,12.6c.108,1.759.077,3.6.882,5.169a18.837,18.837,0,0,0,2.462,3.093c3.211,3.917,3.616,9.355,3.881,14.415a2.558,2.558,0,0,0,3.093.414c1.021-.48,1.842-1.3,2.834-1.839,2.49-1.337,5.534-.64,8.341-.958a11.685,11.685,0,0,0,9.913-9.33,15.177,15.177,0,0,1,.812-3.946c.86-1.839,2.929-3.086,3.207-5.1.108-.8-.091-1.627.084-2.414.549-2.484,4.35-3.263,4.677-5.788.16-1.213-.582-2.331-1.052-3.459a8.427,8.427,0,0,1,2.7-9.732c1.095-.8,2.372-1.327,3.488-2.1,5.37-3.726,5.252-11.81,2.988-17.944-.884-2.393-2.02-4.809-1.857-7.355a12.028,12.028,0,0,1,1.565-4.757,31.717,31.717,0,0,1,7.966-9.756c2.131-1.741,4.579-3.308,5.795-5.778a47.971,47.971,0,0,0,1.536-4.8c1.06-2.877,3.275-5.14,5-7.67S453.692,279.092,452.563,276.243Zm-31.319,62.281c-.145,1.052-1.33,2.037-2.238,1.491a41.537,41.537,0,0,0-1.24-8.328q-.434-1.975-.867-3.946a2.22,2.22,0,0,0-.867-1.592c-.393-.212-.9-.177-1.254-.439-.54-.393-.5-1.24-.95-1.737-.586-.648-1.683-.418-2.424-.882a2.966,2.966,0,0,1-1.01-2.3l-1.118-9.519a1.7,1.7,0,0,1,.114-1.084,1.917,1.917,0,0,1,1.035-.634,7.094,7.094,0,0,0,3.838-3.517,12.372,12.372,0,0,1,1-2.031c1.62-2.194,3.79-1.54,3.974.613.258,2.992-.93,2.612-2.6,3.664-1.285.8-3.5,2.159-4.382,3.5-1.333,2.023-.149,2.592.77,4.559.849,1.826.038,4.281,1.375,5.788.865.979,2.316,1.153,3.421,1.854,1.723,1.093,2.361,3.3,2.476,5.339s-.151,4.116.362,6.091A8.247,8.247,0,0,1,421.245,338.524Z" transform="translate(63.649 33.671)"/><path class="b" d="M411.315,315.025c-1.095,2,1.144,4.326.962,6.6-.187,2.332-2.8,3.8-3.33,6.074a6.35,6.35,0,0,0,.157,2.858,23.772,23.772,0,0,0,1.863,5.2,5,5,0,0,0,.989,1.471c1.339,1.252,3.65.831,4.95-.461a8.671,8.671,0,0,0,2.074-4.986,21.685,21.685,0,0,1,1.1-5.368c1.05-2.45,3.38-4.518,3.246-7.18-.066-1.33-.761-2.54-1.069-3.834s-.047-2.942,1.167-3.489l.395,2.55c3.449-1.078-.782-12.476-4.528-6.708-1.526,2.348-.016,3.93-3.045,5.144C414.617,313.554,412.3,313.223,411.315,315.025Z" transform="translate(90.296 61.511)"/><path class="b" d="M681.615,168.3a2.014,2.014,0,0,0-.705-.965,33.081,33.081,0,0,0-6.882-4.872,11.728,11.728,0,0,0,4.589-1.034,4.013,4.013,0,0,0,2.316-3.8c-.352-2.68-4.145-4.237-3.759-6.9.182-1.2,1.227-2.419.658-3.5a2.743,2.743,0,0,0-2.192-1.045q-6.575-.886-13.162-1.759a4.939,4.939,0,0,1-1.624,4.542c-1.362,1-3.656.67-4.3-.886a5.823,5.823,0,0,0-.613-1.646c-.784-1-2.362-.421-3.565.045a11.288,11.288,0,0,1-8.109-.012,2.093,2.093,0,0,1-1.249-.976c-.308-.739.2-1.545.249-2.34.069-1.363-1.34-2.419-2.7-2.544a10.438,10.438,0,0,0-3.974.852c-3.781,1.226-8.267,1.385-11.379-1.091a33.52,33.52,0,0,0-2.668-2.283,10.812,10.812,0,0,0-4.759-1.237l-12.7-1.295a1.775,1.775,0,0,0-1.214.17c-.545.4-.454,1.226-.636,1.874a3.265,3.265,0,0,1-3.067,2.01c-1.306.091-2.623-.216-3.917-.068a18.1,18.1,0,0,1-2.873.409c-.977-.057-2.033-.739-2.01-1.7a4.476,4.476,0,0,0-2.067,3.588c-2.464.273-5.565-1.487-5.031-3.917a13.419,13.419,0,0,0,.569-1.818c.328-3.951-9.438-4.826-11.641-3.123-.6.466-1.067,1.091-1.635,1.591a5.51,5.51,0,0,1-8.142-1.579,41.09,41.09,0,0,0-10.426.045c-1.408-2.385-5.065-1.261-7.4.227s-5.747,2.953-7.53.828a41.105,41.105,0,0,0,16.263-7.767c.477-.375,1-.886.886-1.5a1.632,1.632,0,0,0-.784-.965,12.8,12.8,0,0,0-7.552-2.261c-1.953.045-4.27.4-5.508-1.1-.772-.921-.852-2.34-1.794-3.1-.9-.727-2.18-.557-3.316-.364l-7.54,1.363a1.939,1.939,0,0,0-1.091.443,2.4,2.4,0,0,0-.364,1.51,5.271,5.271,0,0,1-7.336,4.111,16.561,16.561,0,0,0-2.7-1.567,6.411,6.411,0,0,0-3.85.488q-7.82,2.709-15.615,5.417a6.027,6.027,0,0,0,4.86.83c.488.874-.783,1.646-1.761,1.852-3.974.828-7.937,1.658-11.913,2.475,2.272,1.727,4.476,3.555,6.587,5.474,1.022-.715,1.988,1.148,1.6,2.34s-1.091,2.668-.182,3.52a5.037,5.037,0,0,1-2.851-2.464c.636-.465,1.249-.943,1.885-1.419a2.985,2.985,0,0,1-3.328-1.976,16.448,16.448,0,0,1-6.984-3.168,2,2,0,0,0,1.136,2.555c-.931.125-1.874.239-2.8.352a3.666,3.666,0,0,0,3.089,2.8,6.447,6.447,0,0,1-5.462-1.147c1.385-2.089-.648-5.405-3.146-5.111,1.431.193,1.67,2.249,1.045,3.543s-1.749,2.476-1.727,3.917c.023,1.772,1.67,3.9.295,5.02,1.67,1.4,4.782-1.147,6.179.512a4.853,4.853,0,0,1,.658,1.885,4.272,4.272,0,0,0,4.668,2.953c-1.148,1.816-3.873.023-5.122-1.726s-4.032-3.488-5.111-1.636a4.015,4.015,0,0,0-.283,2.044c-.069,5.055-6,9.063-10.709,7.235,1.794-2.215,6.006-1.34,7.382-3.828a5.466,5.466,0,0,0,.238-3.417c-.556-3.749-1.1-7.5-1.658-11.243a22.6,22.6,0,0,0,.375-5.247c-1.976.692-5.156.6-5.087-1.488-1.681,2.783-3.362,5.553-5.043,8.336-1.022,1.67-1.794,4.3-.045,5.178a2.327,2.327,0,0,1,2.862,1.739,5.258,5.258,0,0,1-.647,3.645c-2.522-6.972-15.275-3.759-18.591-10.391-1.522.591-.136,2.93,1.4,3.486s3.656,1.545,3.089,3.079c-.432,1.2-2.09,1.2-3.362,1.113a19.132,19.132,0,0,0-10.664,2.407c-.284-1.295-.579-2.577-.863-3.861-2.68,1.9-5.372,3.793-8.051,5.7a9.545,9.545,0,0,1-4.282,2.044c-1.589.16-3.417-.795-3.623-2.374s2.1-2.975,3.124-1.749c.443-2.907-3.533-5.338-5.917-3.611a9.1,9.1,0,0,1,.091,8.915,3.939,3.939,0,0,1-2.579,2.146c-1.147.17-2.464-.818-2.226-1.953a6.551,6.551,0,0,0-2.17,5.178,6.1,6.1,0,0,1-6.643-2.17c.182,1.124.364,2.237.545,3.362-1.7,1.829-5.429.512-5.6-1.987-.045-.739.148-1.466.148-2.2,0-2.521-2.225-4.4-4.247-5.905,3.021,1.146,6.065,2.294,9.085,3.441,1.7.647,3.521,1.306,5.3.965,2.611-.5,4.293-4.008,1.976-5.826a41.565,41.565,0,0,0-14.06-7.176,7.762,7.762,0,0,0-4.474-.3c-1.18.375-2.759,1.124-3.4.069a3.752,3.752,0,0,0,3.259-1.182,44.864,44.864,0,0,0-7.483-1.022c-2.908,2.577-4.883,6.235-4.043,9.915,1.295,5.666,8.654,10.413,5.962,15.558,2.532-.567,5.178-1.124,7.688-.488a6.8,6.8,0,0,1,3.543,2.192.42.42,0,0,1,.012-.17,4.031,4.031,0,0,1,2.328-.295c.761.2,1.385,1.1,1,1.8-.261.488-.941.9-.7,1.4.16.318.579.364.909.466a1.765,1.765,0,0,1,1.022,2.362q-2.01-.119-4.02-.2c-.454.976-1.067,1.907-1.5,2.884-1.8,4.077-.488,8.756-.34,13.207a13.33,13.33,0,0,1-1.591,6.8c.273-.056.545-.113.818-.158,5.053-.863,10.824.421,13.923,4.508s2.055,11.118-2.692,13.037c-1.8.727-3.906.705-5.553,1.737a3.379,3.379,0,0,0-1.4,1.9,31.933,31.933,0,0,1,9.687-4.054,6.115,6.115,0,0,1-4.008,3.316c.579.374.386,1.35-.193,1.726a2.718,2.718,0,0,1-2.01.17,4.681,4.681,0,0,0-2.055-.147,2.078,2.078,0,0,0-1.454,1.953,1.759,1.759,0,0,0,.091.545,5.184,5.184,0,0,1,6.371-.079c.693.556,1.237,1.283,1.976,1.783.818.545,1.885.795,2.51,1.567s.182,2.35-.784,2.146c-.034.488.478.84.954.931a5.424,5.424,0,0,1,1.431.273c1,.522.818,2.135-.057,2.84a5.1,5.1,0,0,1-3.214.771c-2.953.045-6.008.069-8.71-1.135-1.272-.557-2.419-1.385-3.737-1.852a4.089,4.089,0,0,0-3.964.386c-.5.421-.828,1.011-1.3,1.466a3.415,3.415,0,0,1-5.725-3.169,15.828,15.828,0,0,0-3.02,4.225c.647,1.84,1.294,3.7,1.942,5.542.216.6.419,1.193.635,1.784.625,1.8,1.648,3.917,3.543,4.042,2.409.16,4.816-3.111,6.723-.158a3.537,3.537,0,0,1,.477,1.931c-.01,1.34,1.829,3.02,2.818,1.976a5.017,5.017,0,0,1,.227-2.873,1.735,1.735,0,0,1,2.429-.795,2.351,2.351,0,0,1,.66,1.793,16.35,16.35,0,0,1-.126,2.9c-.295,2.283-1.2,4.656-3.134,5.883-1.51.953-3.668,1.635-2.441,3.656.284.443,1.431-.069,1.749.364.715,1,.216,2.055.318,3.237.192,2.509,3.043,3.769,4.6,5.745,2.158,2.725,1.7,6.632,2.771,9.948,2.17,6.78,10.709,11.13,10.233,18.227-.193,2.76-1.545,6.223.727,7.814,1.52,1.056,3.6.306,5.281-.478q4.717-2.179,9.459-4.383a6.5,6.5,0,0,0,3.306-2.52,10.008,10.008,0,0,1,.931-2c.7-.828,1.919-.943,2.953-1.283,2.328-.784,3.884-2.976,5.053-5.144a35.518,35.518,0,0,0,2.953-7.428,4.234,4.234,0,0,0,.182-2.089c-.613-2.51-5.008-2.747-5.235-5.326-.091-1.079.658-2.033,1.01-3.055s-.034-2.532-1.113-2.52a12.832,12.832,0,0,1-2.793,5.291c-1.454,1.409-3.907,2-5.5.761-1.18-.908-1.567-2.486-2.373-3.736-1.226-1.931-3.452-3.1-4.52-5.122s.5-5.429,2.612-4.553a15.029,15.029,0,0,0,7.132,9.119,29.549,29.549,0,0,0,6.144-2.907c.965-.773,2.237.67,2.338,1.9s-.091,2.737.909,3.452a3.05,3.05,0,0,0,1.828.4,67.317,67.317,0,0,0,15.445-1.794,5.109,5.109,0,0,0,4.94,6.427,3.174,3.174,0,0,1-2.919,2.17,8.957,8.957,0,0,0,2.4,3.3,3.022,3.022,0,0,0,3.781.023c.921-.9,1.045-2.567,2.237-3.067,1.385-.579,2.76,1.158,2.646,2.658s-1.056,2.782-1.555,4.2c-1.01,2.9-.068,6.075.863,8.994,1.806,5.633,3.68,11.413,7.37,16.047,1.328-1.249,2.658-2.488,3.986-3.737,1.794.306,1.852,2.885,1.284,4.6-.58,1.737-1.114,4.065.443,5.008,1.4.84,3.271-.512,3.577-2.1s-.421-3.18-1.124-4.646q-1.379-2.81-2.737-5.644a4.094,4.094,0,0,1-.591-2.066,5.167,5.167,0,0,1,.614-1.749,10.116,10.116,0,0,0,.715-5.895,26.48,26.48,0,0,0,11.458-11.356,5.441,5.441,0,0,1,1.419-1.988c2-1.453,5.36.591,7.132-1.147a10.564,10.564,0,0,1,5.712,5.166c.852,1.727,1.648,4.021,3.567,4.168a7.814,7.814,0,0,0-4.713,7.575,5.019,5.019,0,0,0,5.939-5.087c1.158-.658,2.692.147,3.3,1.328a7.454,7.454,0,0,1,.466,3.907c-.227,4.008-.466,8.006-.692,12a5.6,5.6,0,0,0,.544,3.464c.625.931,1.806,1.453,2.237,2.5.648,1.533-.647,3.463.194,4.905.454.761,1.352,1.1,2.044,1.636,1.478,1.135,1.976,3.123,3.045,4.656s3.532,2.532,4.69,1.067a11.129,11.129,0,0,1-4.2-8.085,5.735,5.735,0,0,0-.306-2.113,6.576,6.576,0,0,0-1.806-1.954c-3.862-3.532-3.385-9.63-2.6-14.808a12.069,12.069,0,0,0,7.8,5.02,4.75,4.75,0,0,0,1.874,6,5.058,5.058,0,0,1,3.623-4.429,19.3,19.3,0,0,0,2.567-.6c2.419-1.044,2.68-4.315,2.555-6.939a5.866,5.866,0,0,0-.66-2.975c-.931-1.42-2.816-1.749-4.293-2.59a6.473,6.473,0,0,1,4.452-11.98c.988.431.545,2-.318,2.646s-2.045,1.034-2.442,2.044c-.567,1.385,1.114,2.93,2.579,2.612a3.588,3.588,0,0,0,2.51-3.362,10.54,10.54,0,0,0-1-4.361,9.4,9.4,0,0,0,8.8-2.8,9.065,9.065,0,0,1,1.941-1.907c1.533-.9,3.725-.409,4.986-1.67.965-.966.9-2.51,1.192-3.838.557-2.476,2.464-4.373,3.6-6.632,1.113-2.261,2.225-5.735,1.624-8.235a46.516,46.516,0,0,0-2.022-5.212,17.087,17.087,0,0,1-.954-3.839,2.746,2.746,0,0,1,.136-1.6c.443-.852,1.533-1.056,2.351-1.555a3.442,3.442,0,0,0,1.487-3.7,10.141,10.141,0,0,1-9.925-2.158c.749-1.454,2.419-2.136,3.861-2.907s2.964-2.011,2.9-3.658c.921,0,1.828,0,2.737-.01a4.8,4.8,0,0,1-1.816,3.929c1.249,1.079,3.123.057,4.6-.715s3.917-.773,4.1.874c.171,1.579-2.226,2.646-1.9,4.2a2.3,2.3,0,0,1,2.566,3.191c-.249.409-.647.806-.579,1.284.081.579.761.806,1.272,1.089a3.2,3.2,0,0,1,1.306,4.134c.988-.773,1.976-1.533,2.964-2.306a1.8,1.8,0,0,0,3.508-.828c-.192-.9-1.022-1.522-1.295-2.385-.409-1.306.523-2.759.069-4.054-.353-1.011-1.431-1.545-2.306-2.181S581,237.2,581.52,236.26c.317-.579,1-.818,1.555-1.158,2.782-1.726,3.373-6.644,6.643-6.757a19.075,19.075,0,0,0,1.954.091c1.862-.261,2.51-2.521,3.384-4.191,1.931-3.713,6.428-5.518,8.46-9.186,1.557-2.818,1.375-6.258,2.294-9.359.67-2.248,1.942-4.587,1.158-6.8-.976-2.759-5.439-3.3-7.052-.852.261-1.385.522-2.771.795-4.168-.976,3.146-7.461.308-1.816-2.771a33.358,33.358,0,0,0,9.858-8.164,15.193,15.193,0,0,1,3-3.158c4.439-3,10.55.715,15.751-.591.182.512.352,1.022.534,1.533-1.4.579-2.783,1.17-4.168,1.749,2.931,1.374,6.087-1.885,9.324-1.749.943.034,2.3.045,2.362-.886-.874-.136-2-.614-1.84-1.476a1.588,1.588,0,0,1,.512-.8c.84-.9,1.692-1.783,2.544-2.68,1.419-1.5,3.714-3.089,5.338-1.794a2.221,2.221,0,0,1-.886,3.691c1.01,1.01,2.725.091,3.736-.931s2.318-2.237,3.658-1.715a2.824,2.824,0,0,0,.022-2.419,4.638,4.638,0,0,1,3.577-.375,4,4,0,0,0-1.352,2.409,13.21,13.21,0,0,1-.238,1.794c-.648,2.157-3.532,2.407-5.565,3.4-3.589,1.737-4.838,6.336-8.063,8.664a14.343,14.343,0,0,0-2.351,1.739c-1.419,1.567-1.237,4.008-.579,6.018.682,2.01,1.761,3.941,1.885,6.053a8.133,8.133,0,0,1-.022,1.182,1.5,1.5,0,0,0,2.566,1.192c.239-.249.478-.488.715-.727a12.018,12.018,0,0,0,2.919-3.941c.4-1.089.579-2.419,1.591-2.986a7.486,7.486,0,0,1,2.5-.386c.84-.136,1.737-.988,1.318-1.739a2.542,2.542,0,0,1,.386-4.156c.636.3,1.272.6,1.907.909,1.511-.693-.771-3.168.057-4.611.318-.557,1.079-.9,1.057-1.533-.023-.795-1.148-.931-1.931-.806a5.362,5.362,0,0,1,3.8-6.042c-.045.534-.091,1.079-.136,1.613q1.891-1.192,3.781-2.4c.227.614.443,1.227.66,1.852,1.51.784,2.692-2.658,4.259-2.022a4.117,4.117,0,0,1,.852.682,2.264,2.264,0,0,0,3.452-1.2c1.169-5.383,7.71-5.632,13.2-6.087C680.151,170.109,681.91,169.552,681.615,168.3Zm-242.166,65.72a4.2,4.2,0,0,1-3.475.863c-.295.249-.079.761.249.965a5.506,5.506,0,0,1,1.023.534c.51.49.306,1.33.386,2.022.148,1.136,1.113,2,1.374,3.1.466,1.988-1.68,3.816-3.725,3.828-4.269.034-7.267-3.43-8.37-7.156-.636-2.123-1.85-7.9,1.42-8.233-.988-1.295.045-2.725-.569-4.111-.34-.749-1.18-1.113-1.749-1.715a3.733,3.733,0,0,1,0-4.587,8.641,8.641,0,0,1,4.055-2.749c1.51-.591,3.214-1.045,4.7-.431s2.4,2.737,1.283,3.906c-1.2,1.261-3.668.535-4.769,1.9a2.458,2.458,0,0,0,.238,3.01,6.623,6.623,0,0,0,2.76,1.7,2.277,2.277,0,0,1,1.408,1.045c.352.828-.364,1.668-.818,2.441s-.352,2.146.545,2.146c.875-.012,1.011-1.249,1.5-1.976a1.973,1.973,0,0,1,3.123.17A2.692,2.692,0,0,1,439.449,234.023Zm106.6-39.713a7.251,7.251,0,0,0-.556,1.158c-.136.454-.136.943-.251,1.4-.34,1.362-1.6,2.249-2.737,3.077A6.7,6.7,0,0,0,540.453,202c-.192.352-.328.739-.545,1.091-1.123,1.9-4.5,2.283-2.372-.364a47.358,47.358,0,0,1,4.882-5.5,7.114,7.114,0,0,0,1.613-1.533c.614-1.045.273-2.351.318-3.555s.954-2.646,2.113-2.3A6.171,6.171,0,0,1,546.052,194.31ZM400.837,173.346a2.118,2.118,0,0,1,0,.386,5.329,5.329,0,0,1-.283,1.34,3.382,3.382,0,0,0,.488,0A1.853,1.853,0,0,0,400.837,173.346Zm-8.869,28.812a6.116,6.116,0,0,0,4.838-3.4C394.762,199.249,392.752,200.249,391.967,202.157Z" transform="translate(82.376 5.03)"/><path class="b" d="M424.011,210.076c-1.8.727-3.906.705-5.553,1.737a3.379,3.379,0,0,0-1.4,1.9c-.271.148-.544.306-.817.454-4.792,2.725-3-3.271-7.484-3.237-4.373.034-3.112,7.359-5.065,6.711-.5,1.113.318,2.442-.034,3.612a8.8,8.8,0,0,1-.557,1.146,2.967,2.967,0,0,0-.239.749,15.828,15.828,0,0,0-3.02,4.225c-.057-.17-.114-.33-.17-.5-1.069-1.056-3.021.069-3.362,1.522s.295,2.942.726,4.373.58,3.18-.488,4.235c-.556.557-1.465.943-.658,2.215a1.371,1.371,0,0,0,1.4.567c1.158-.17,2.146,1.976,1.01,2.044-2.089.251-3.623-1.941-4.281-3.951s-1.1-4.328-2.862-5.486c-.863-.567-2.033-.84-2.453-1.783-.705-1.579,1.34-3.43.589-4.986-.737-1.522-3.214-.965-4.5-2.089-1.079-.966-.931-2.816-1.976-3.8a5.511,5.511,0,0,0-1.954-.966,8.7,8.7,0,0,1-4.838-4.678c-1.237.227-1.056,2.067-.465,3.18A23.772,23.772,0,0,0,385.75,227.2c-1.4.7-2.089,2.294-2.657,3.759q-1.313,3.27-2.6,6.563a7.6,7.6,0,0,1-3.747-1.146c-1.057-.795-1.624-2.419-.841-3.475a3.184,3.184,0,1,0,2.6-5.44c.841-2.385-1.84-4.474-4.2-5.372s-5.257-2.033-5.542-4.543c-1.079-.965-2.816-.477-3.986.364s-2.146,2.022-3.521,2.488-3.3-.318-3.225-1.761c-.7.613-1.407,1.215-2.111,1.828,1.6.454.692,3.021-.784,3.782s-3.486,1.226-3.85,2.85a9.947,9.947,0,0,0,.034,2.01,6.831,6.831,0,0,1-.953,2.907c-1.159,2.261-2.646,4.782-5.146,5.247-1.465.273-3.7.432-3.5,1.9a9.771,9.771,0,0,0-7.836-2.249c.17-1.294.34-2.589.5-3.872-.953-.148-1.919-.284-2.873-.421a8.941,8.941,0,0,0,1.42-7.211c-.33-1.374-.727-3.3.6-3.793a5.085,5.085,0,0,1-1.5-2.419,8.926,8.926,0,0,1,6.371-.273c.9.295,1.748.738,2.657,1.01a6.476,6.476,0,0,0,7.132-2.316c1.476-2.237.863-5.713-1.488-7-1.237-.67-2.737-.727-3.952-1.453-1.192-.727-1.816-2.727-.613-3.442a3.565,3.565,0,0,0,4.759.988,6.689,6.689,0,0,1-.875-4.008,1.821,1.821,0,0,1,2.385,1.783,4.754,4.754,0,0,0,4.486-3.146,5.6,5.6,0,0,1,.761-1.862c.591-.693,1.613-.795,2.464-1.113a4.6,4.6,0,0,0,2.668-5.508,18.463,18.463,0,0,1,8.756-1.658c-1.056-1.954-2.146-4.032-2.044-6.258s1.907-4.508,4.111-4.3a7.62,7.62,0,0,1-.045,3.976c.647.147,1.283.283,1.931.431-1.4,1.158-2.816,3.4-1.363,4.486,1.158.863,2.816-.251,4.237.045.647.136,1.2.567,1.84.715,2.872.715,5.655-4.009,8.085-2.316.818.567,1.147,1.726,2.544,1.555a2.469,2.469,0,0,0,1.818-1.272c.806-1.4.544-3.01.7-4.553.136-1.34.783-2.828,2.089-3.18,1.431-.386,2.806.795,4.282.954,2.486.283,4.441-3.134,2.929-5.134a9.78,9.78,0,0,1-6.678,1.964c-.7-1.226.761-2.555,2.045-3.134a24.427,24.427,0,0,1,14.184-1.7c.852-.795-.375-2.044-1.419-2.544s-2.2-1.828-1.306-2.555c-3.134-1.261-5.883,3.134-9.267,3.294-3.464.17-5.474-4.464-4.191-7.689s4.509-5.178,7.519-6.9a6.077,6.077,0,0,0-9.46-.454,7.5,7.5,0,0,1-2.5,6.451c-1.874,1.613-4.929,3.089-4.293,5.484.557,2.1,3.907,3.112,3.452,5.247-.409,1.964-3.623,1.988-4.383,3.838-.545,1.352.512,3.01-.136,4.316s-2.532,1.363-3.713,2.249a28.594,28.594,0,0,0-2,2.237c-.751.67-2.1.931-2.646.079s.17-1.874.556-2.794c1.182-2.714-.522-5.735-2.168-8.2-3.339-.273-5.065,6.042-8.166,4.757a4.143,4.143,0,0,1-1.828-2.089,24.7,24.7,0,0,1-2.93-7.132,8.378,8.378,0,0,1,1.772-7.245c2.373-2.476,6.36-2.624,8.994-4.8,2.953-2.441,3.668-6.972,6.836-9.119,1.9-1.284,4.8-1.976,5.031-4.259l-6.269.51a4.459,4.459,0,0,1,5.1-2.055c-.783-1.68,1.158-3.486,3.01-3.747s3.793.284,5.575-.249c1.454-.444,2.612-1.522,4.009-2.124a11.081,11.081,0,0,1,3.862-.715c1.476-.069,2.964-.069,4.441,0-2.908,2.577-4.883,6.235-4.043,9.915,1.295,5.666,8.654,10.413,5.962,15.558,2.532-.567,5.178-1.124,7.688-.488a6.8,6.8,0,0,1,3.543,2.192c-.125.988.682,1.919,1.146,2.84a2.118,2.118,0,0,1,0,.386,5.329,5.329,0,0,1-.283,1.34c-2.181-.079-7.3-1.135-4.85,2.442,1.091-1.295,1.6-.466,2.862-.6.522-.056,1.01-.6.818-1.089.283.01.567.022.852.045-.454.976-1.067,1.907-1.5,2.884-1.8,4.077-.488,8.756-.34,13.207a13.33,13.33,0,0,1-1.591,6.8c.273-.056.545-.113.818-.158,5.053-.863,10.824.421,13.923,4.508S428.758,208.157,424.011,210.076Z" transform="translate(67.22 11.102)"/><path class="b" d="M330.342,182.9c-.009,1.258,1.2,2.394.87,3.607s-2.029,1.742-2.1,2.984c-.081,1.387,1.85,1.887,3.211,1.61a10.035,10.035,0,0,0,6.245-4.172c.7-1.041.978-2.827-.209-3.242l4.872-1.71c1.275,1.087,2.647,2.919,1.594,4.222-.678.841-2.276,1.424-1.794,2.392.2.395.718.592.81,1.024.1.456-.336.828-.693,1.128a6.79,6.79,0,0,0-2.387,5.308,12.091,12.091,0,0,1,8.623-3.159,3.018,3.018,0,0,0,2.118-.37c.562-.474.313-1.7-.412-1.578l2.637-1.894a1.354,1.354,0,0,0,.5-.519c.227-.526-.283-1.1-.826-1.283a15.387,15.387,0,0,1-1.664-.4c-1.147-.538-1.34-2.037-1.735-3.24s-1.8-2.422-2.777-1.61a5.93,5.93,0,0,0,.027-3.485c-.456-1.089-1.911-1.831-2.86-1.128-.549-.814.723-1.567,1.391-2.288a2.17,2.17,0,0,0-.044-2.9,2.1,2.1,0,0,0-2.881.018c.1-2.224.573-4.964,2.694-5.643.584-.186,1.218-.174,1.8-.373s1.134-.728,1.037-1.333c.1.708,1.245.745,1.67.169a2.772,2.772,0,0,0,.227-2.075c-1.653-.474-2.367,2.31-4,2.836-.753.242-1.614-.045-2.344.26-1.728.723-1.263,3.939-3.068,4.441a9.785,9.785,0,0,0-1.306.213c-.822.353-.913,1.489-.713,2.362a4.127,4.127,0,0,1,.175,2.623c-.208.445-.634.888-.462,1.348.227.608,1.122.444,1.733.661,1.54.547.7,2.357-.1,3.071-1,.895-2.685.661-3.863.5C334.564,181.02,330.364,179.474,330.342,182.9Z" transform="translate(66.502 18.77)"/><path class="b" d="M360.481,207.272l-.628-.522a1.618,1.618,0,0,0,1.124-1.5,3.13,3.13,0,0,0-.623-1.875c-.452-.667-1.231-1.293-1.993-1.03-.967.332-.983,1.7-.658,2.676s.783,2.1.193,2.94a1.109,1.109,0,0,1,1.024.295c-1.407.9-1.739,3.776.341,3.943a1.506,1.506,0,1,0,.384-2.982C359.687,209.085,360.5,207.29,360.481,207.272Z" transform="translate(74.979 30.52)"/><path class="a" d="M541.932,231.939c.114-1.121.232-2.427,1.179-3.037a3.816,3.816,0,0,0,1.589,1.871,4.361,4.361,0,0,0,1.374-1.731,2.585,2.585,0,0,1,1.627-1.427c.737-.121,1.566.7,1.178,1.339,1.923.76,3.2-2.042,4.985-3.088a11.8,11.8,0,0,1,3.141-.861c1.057-.27,2.172-.944,2.322-2.024a11.366,11.366,0,0,0-.2-1.894c-.044-1.361,1-2.471,1.667-3.656a7.332,7.332,0,0,0,.139-6.835,15.758,15.758,0,0,1-1.781-3.408c-.291-1.253.436-2.889,1.723-2.871.356,1.095.834,2.322,1.909,2.731s2.516-.958,1.739-1.806a10.365,10.365,0,0,1,3.726-.325,2.063,2.063,0,0,0-.282-2.571,22.425,22.425,0,0,0,9.944-7.361l-10.788,6.7a1.664,1.664,0,0,1-1.4.36c-.427-.162-.634-.631-.848-1.033a5.737,5.737,0,0,0-5.062-2.972q.249,2.579.5,5.157c-1.224-.223-2.335.928-2.618,2.141a11.958,11.958,0,0,0,.1,3.715,13.023,13.023,0,0,1-5.252,11.408q-.021-1.056-.042-2.114c-1.875.274-1.017,3.772-2.7,4.633a4.4,4.4,0,0,1-1.567.252c-2.642.278-2.6,3-5.458,1.913-.283,3.469-4.692,2.858-4.374,6.351C538.662,234.448,541.443,236.7,541.932,231.939Z" transform="translate(128.951 28.343)"/><path class="a" d="M559.717,181.86a2.276,2.276,0,0,1,.055.761c-.075.484-.449.87-.586,1.341a2.413,2.413,0,0,0,.906,2.254,7.871,7.871,0,0,1,1.751,1.842c.658,1.265.19,3,1.132,4.065-.293.728-1.4.508-2.035.051s-1.424-1.053-2.114-.679c-.813,1.171-.362,2.783.279,4.054s1.474,2.57,1.345,3.989c-.06.667-.566,1.439-1.218,1.283a1.461,1.461,0,0,1-.635-.425,5.55,5.55,0,0,1-1.97-3,6.932,6.932,0,0,1,.409-2.612,13.507,13.507,0,0,0,.257-5.444,12.254,12.254,0,0,1-.284-2.333c.053-1.454.821-3.071-.027-4.255-.265-.369-.692-.78-.492-1.189a17.714,17.714,0,0,1,2.542-2.723A16.472,16.472,0,0,1,559.717,181.86Z" transform="translate(134.341 23.526)"/><path class="a" d="M488.643,276.895c1.188.875,2.668,1.5,3.363,2.8.536,1,.536,2.314,1.362,3.1.443.419,1.06.617,1.507,1.03,1.05.967.818,2.664,1.323,4,.718,1.892,2.923,3.015,3.341,4.994a9.131,9.131,0,0,0,.354,2.033c.561,1.195,2.171,1.448,3.071,2.414a15.694,15.694,0,0,1,1.069,1.627,3.942,3.942,0,0,0,4.916,1.113,5.7,5.7,0,0,1-.919-2.966,11.12,11.12,0,0,0-.045-1.85c-.286-1.467-1.685-2.5-2.072-3.942.656-.482,1.517.226,2.006.876s1.311,1.383,2,.941a28.485,28.485,0,0,0-4.241-4.451c.123.593-.674,1.032-1.243.825a2.6,2.6,0,0,1-1.209-1.3,2.282,2.282,0,0,1-.413-1.279c.035-.379.257-.718.325-1.092a2.2,2.2,0,0,0-1.067-2,15.017,15.017,0,0,1-1.967-1.358c-1.121-1.132-1.31-3.1-2.71-3.856-.669-.362-1.485-.358-2.163-.7-2.11-1.076-2.514-4.2-4.924-5.159C486.881,271.321,486.159,275.064,488.643,276.895Z" transform="translate(113.669 51.442)"/><path class="a" d="M504.944,294.236l-1.5,2.1a.893.893,0,0,0-.221.5c0,.521.748.6,1.265.526a13.318,13.318,0,0,1,4.9.243c2.7.648,5.272,2.15,8.044,1.976a5.923,5.923,0,0,1,1.259-.029,9.736,9.736,0,0,1,1.3.408,3.668,3.668,0,0,0,3.02-.447c-.745-.721-1.912-.667-2.947-.744s-2.263-.551-2.388-1.579a6.482,6.482,0,0,0-.047-.841,1.469,1.469,0,0,0-1.411-.9,13.928,13.928,0,0,1-1.789-.013c-.992-.19-1.749-1.108-2.733-1.244s-1.432.618-2.235.657C507.8,294.93,506.491,292.076,504.944,294.236Z" transform="translate(118.459 57.719)"/><path class="a" d="M523.577,299.066c.87.017,1.722.7,2.538.4a2.407,2.407,0,0,1,.613-.232,1.587,1.587,0,0,1,.767.252c2.388,1.1,5.131-2.045,7.583-1.088-.571,2.324-3.645,3.058-4.853,5.124a9.1,9.1,0,0,0,5.443-2.944,6.177,6.177,0,0,1,1.211-1.209c.278-.177.591-.291.866-.47a2.217,2.217,0,0,0,.98-1.972,4.062,4.062,0,0,0-2.049.5,5.7,5.7,0,0,1-1.4.723c-.857.195-1.706-.3-2.576-.422-1.837-.26-3.6,1.653-5.278,1.336-.656-.123-1-.867-1.837-1.078-.678-.17-1.757.121-2.524.012-.857-.122-2.621-.991-3.268-.079C517.889,300.614,523.106,299.056,523.577,299.066Z" transform="translate(123.281 58.764)"/><path class="a" d="M522.29,300.7c.369-.412,1.075-.153,1.439.262s.592.966,1.062,1.257a1.318,1.318,0,0,0,1.541-.145.827.827,0,0,0,.269-.88,1.192,1.192,0,0,0-.784-.557l-.913-.322a3.607,3.607,0,0,0-1.652-.3,1.234,1.234,0,0,0-1.123,1.075" transform="translate(124.102 59.679)"/><path class="a" d="M511.83,293.468c-1,.106-2.319.195-2.707-.737-.23-.548.03-1.167.044-1.762a5.861,5.861,0,0,0-1.053-2.692,8.055,8.055,0,0,1-.8-4.97,2.19,2.19,0,0,1,.483-1.182,2.522,2.522,0,0,1,.68-.46l2.8-1.471a39.384,39.384,0,0,0,3.6-2.055,19.708,19.708,0,0,0,6.723-7.707c.523-.556,1.493-.034,1.842.645a7.564,7.564,0,0,0,.975,2.054c.826.831,2.629,1.015,2.492,2.177a2.192,2.192,0,0,1-.763,1.128,4.839,4.839,0,0,0,2,7.931c-1.413.136-3.233.688-3.238,2.107,0,.895.791,1.837.3,2.585-.51.779-1.875.414-2.48,1.123-.486.569-.183,1.422-.081,2.163a3.736,3.736,0,0,1-3.027,4.051,2.025,2.025,0,0,1-2.083-.776c-.205-.358-.239-.791-.408-1.167-.679-1.519-1.694-.606-2.694-.621A16.6,16.6,0,0,0,511.83,293.468Z" transform="translate(119.651 50.787)"/><path class="b" d="M534.414,279.867l.5-.165a1.056,1.056,0,0,0-1.175.084,5.668,5.668,0,0,0-.871.918,4.808,4.808,0,0,1-3.939,1.553,9.966,9.966,0,0,0-2.734-.256,3.194,3.194,0,0,0-2.275,2.284c-.166.544-.008,1.372.558,1.327a3.282,3.282,0,0,1,2.172-1.994,6.347,6.347,0,0,1,3.032-.077,7.85,7.85,0,0,0,2.379.26,1.878,1.878,0,0,0,1.7-1.444c.069-.576-.24-1.2.007-1.722.214-.457.822-.863.584-1.307C534.089,279.377,534.674,279.817,534.414,279.867Z" transform="translate(124.617 53.512)"/><path class="a" d="M522.6,291.2c.365,1.642,1.134,3.359.538,4.933a1.35,1.35,0,0,0,1.676-.949,3.982,3.982,0,0,0-.123-2.144,3.784,3.784,0,0,1-.09-2.141.513.513,0,0,1,.318-.361.506.506,0,0,1,.244.023,2.888,2.888,0,0,1,1.789,1.994,16.451,16.451,0,0,1,.428,2.755,2.093,2.093,0,0,0,.721,1.526c.795.531,1.926-.18,2.224-1.088a6.41,6.41,0,0,0-.071-2.84c-.178-1.315-.275-2.9-1.44-3.538-.479-.262-1.146-.38-1.3-.9-.186-.627.56-1.113,1.188-1.3a10.817,10.817,0,0,1,1.748-.362c.7-.087,1.619-.287,1.689-.993.074-.735-.853-1.1-1.581-1.224a8.97,8.97,0,0,0-2.649-.184,3.04,3.04,0,0,0-2.232,1.289.909.909,0,0,1-.365.415.592.592,0,0,1-.662-.3,7.754,7.754,0,0,0-.383-.691C522.369,282.762,522.461,290.559,522.6,291.2Z" transform="translate(124.223 55.014)"/><path class="a" d="M535.553,288.4a5.889,5.889,0,0,0-2.951.068c-.173.049-.374.145-.383.325s.208.305.393.356a3.908,3.908,0,0,0,2.78-.29.719.719,0,0,0-.98-.384" transform="translate(127.113 56.171)"/><path class="a" d="M538.454,288.414a1.394,1.394,0,0,0-1.967,1.659c.967.244,1.948-.9,2.872-.521.606.248.914,1.082,1.567,1.117a.764.764,0,0,0,.6-1.184c-.3-.362-.87-.358-1.232-.66-.66-.545-.252-1.6.2-2.333-.738-.16-1.287.7-1.384,1.452a2.846,2.846,0,0,1-.2.967.676.676,0,0,1-.818.376" transform="translate(128.368 55.644)"/><path class="b" d="M534.828,285.816a1.592,1.592,0,0,0,.105.791.554.554,0,0,0,.666.3.81.81,0,0,0,.357-.473,2.381,2.381,0,0,0,.219-1.888,8.281,8.281,0,0,1-.448-.757c-.288-.826.713-1.276,1.357-1.211-.152-1.047-1.041-.306-1.044-1.443,0-.173,1.962-.923.33-1.2C534.24,279.584,534.88,284.431,534.828,285.816Z" transform="translate(127.876 53.689)"/><path class="a" d="M542.352,283.592a4.008,4.008,0,0,1-2.834-.567c-.73.608-.252,1.87.552,2.375s1.806.592,2.64,1.047,1.459,1.6.854,2.335l2,.521c.154.627-.557,1.078-1.1,1.435s-.975,1.233-.415,1.554c.26.557,1.091.466,1.631.171s1.118-.718,1.7-.538a2.437,2.437,0,0,1,.921.745c1.18,1.2,2.979,1.491,4.491,2.231s2.879,2.535,2.061,4.006a8.993,8.993,0,0,1-1.289,1.4,1.488,1.488,0,0,0-.336,1.74,5.456,5.456,0,0,0,3.729-1.166,7.825,7.825,0,0,0,3.868,2.549,3.491,3.491,0,0,0,3.965-1.746,1.923,1.923,0,0,1,.438-.812,1.393,1.393,0,0,1,1.254-.066,24.709,24.709,0,0,1,3.763,1.4,1.118,1.118,0,0,1,.588.467c.158.335-.035.719-.087,1.086-.192,1.359,1.488,2.144,2.84,2.383a32.77,32.77,0,0,0,5.553.5c.062-.934-.945-1.571-1.858-1.776a5.537,5.537,0,0,1-2.632-.861c-.817-.738-.893-2.075-1.752-2.766-.644-.518-1.779-.861-1.6-1.668.187-.866,1.707-.752,2-1.588.18-.517-.27-1.065-.782-1.258a9.53,9.53,0,0,0-1.618-.261,3.3,3.3,0,0,1-2.589-2.821,4.981,4.981,0,0,0-.192-1.535,2.846,2.846,0,0,0-1.892-1.27L554.316,287a2.8,2.8,0,0,0-1.757-.17c-1.523.534-1.418,3.273-3.007,3.563-.825.149-1.553-.509-2.132-1.115a4.529,4.529,0,0,1-1.457-2.316c-.049-.6.56-1.119.5-1.645C546.244,283.287,543.918,283.473,542.352,283.592Z" transform="translate(129.183 54.615)"/><path class="a" d="M565.4,294.823a.863.863,0,0,0,.526.306,7.011,7.011,0,0,0,5.005-.515,4.5,4.5,0,0,1,1.522-.628c.36-.038.725.039,1.084,0a.874.874,0,0,0,.815-.6c.066-.348-.188-.752.018-1.04.215-.3.745-.186.984-.47.266-.318-.052-.78-.353-1.065-1.224-1.157-2.415-2.406-3.726-3.455-.117,1.653,1.089,3.559-.2,4.976C570.325,293.156,565.013,294.213,565.4,294.823Z" transform="translate(137.009 55.908)"/><path class="b" d="M578.257,297.565c.6.2,1.24.29,1.828.526a2.133,2.133,0,0,1,1.328,1.272c0-.029-.007-.056-.009-.083-.209-1.626-1.862-2.641-3.327-3.407a1.1,1.1,0,0,1-.5-.4C577.515,295.349,575.553,296.671,578.257,297.565Z" transform="translate(140.426 58.326)"/><path class="b" d="M591.852,321.923a4.266,4.266,0,0,0-.831-1.875,2.111,2.111,0,0,0-1.822-.789c-.587,1.288.432,2.759,1.6,3.558a11.059,11.059,0,0,0,2.684,1.24C592.314,324.253,592.048,322.815,591.852,321.923Z" transform="translate(144.065 65.423)"/><path class="b" d="M594.495,313.129a18.825,18.825,0,0,1,1.165,4.108,1.352,1.352,0,0,0,.358-1.948c.466.417.473,1.126.579,1.741a4.408,4.408,0,0,0,3.147,3.429,1.4,1.4,0,0,0-.3-1.48,13.715,13.715,0,0,0-1.191-1.067,3.951,3.951,0,0,1-1.213-2.68c-.036-.9.129-2.053-.664-2.49l-.412,1.174c-.228-.023-.378-.248-.466-.458-.549-1.313.007-3.193-1.233-4.146a1.633,1.633,0,0,1-1.2,1.263C593.056,311.517,594.125,312.232,594.495,313.129Z" transform="translate(145.27 62.459)"/><path class="b" d="M582.4,297.833c.909.386,2.075.241,2.762.95s.531,1.881,1.106,2.666c.27.37.678.617.974.966a1.015,1.015,0,0,1,.157,1.253c-.371.436-1.143.166-1.427-.33a4.365,4.365,0,0,1-.328-1.671,1.569,1.569,0,0,0-.856-1.383c-.522-.177-1.214.1-1.579-.314a1.547,1.547,0,0,1-.235-.5c-.527-1.4-2.314-2.088-2.625-3.5C581.058,296.518,581.49,297.446,582.4,297.833Z" transform="translate(141.474 58.478)"/><path class="a" d="M541.56,295.606a16.23,16.23,0,0,0-2.457,2.609,1.4,1.4,0,0,0,1.794-2.026" transform="translate(129.167 58.369)"/><path class="a" d="M545.7,292.7a2.283,2.283,0,0,1,1.039,1.648c.018.671-.644,1.357-1.282,1.145q.187-1.441.373-2.885" transform="translate(131.063 57.474)"/><path class="a" d="M549.332,304.43a2.047,2.047,0,0,0-2.8-.827,2.024,2.024,0,0,1,.158,2.836,10.832,10.832,0,0,1-1.324.941,3.167,3.167,0,0,0-.118,4.7l-1.976,1.026a5.828,5.828,0,0,0-3.456-3.863,10.68,10.68,0,0,0-4.629,6.352l-.792.138-.365,2.307a3.547,3.547,0,0,1-.635-2.771c-1.372.271-2.146,1.732-2.524,3.081s-.6,2.838-1.594,3.825a6.373,6.373,0,0,1-2.731,1.349q-2.255.693-4.513,1.384a5.394,5.394,0,0,0-3.26,1.957c-.543.9-.891,2.341-1.935,2.215-.441-.053-.785-.417-1.215-.525-.887-.223-1.68.754-1.718,1.668a9.052,9.052,0,0,0,.63,2.657,2.419,2.419,0,0,1-.5,2.538,2.9,2.9,0,0,1,2.189,1.053,1.744,1.744,0,0,1-.146,2.279,1.256,1.256,0,0,1-1.984-.592,74.318,74.318,0,0,1,3.85,15.438c.3,2.15.471,4.469-.573,6.374a5.9,5.9,0,0,0,6.409.347c1.093-.652,1.957-1.657,3.1-2.215,1.992-.972,4.407-.409,6.53-1.052,1.944-.588,3.524-2.154,5.525-2.506,1.509-.266,3.189.171,4.511-.6.623-.366,1.08-.963,1.682-1.366a4.584,4.584,0,0,1,2.3-.68,7.111,7.111,0,0,1,7.218,5.157,14.622,14.622,0,0,0,.522,2.347,1.959,1.959,0,0,0,1.809,1.34,5.038,5.038,0,0,1,4.991-4.457,2.446,2.446,0,0,1-1.049,2.04,5.365,5.365,0,0,0-1.614,1.736c-.313.735.038,1.813.834,1.871a6.533,6.533,0,0,1,1.627-1.99,2.455,2.455,0,0,1-.96,3.991c1.555-.46,3.759-.615,4.28.922a6.026,6.026,0,0,1,.144,1.363c.228,2.373,2.711,3.761,4.885,4.741a2.5,2.5,0,0,0,1.393.322c.823-.139,1.262-1.009,1.74-1.692s1.458-1.28,2.085-.73c.543.475.318,1.413.748,1.992.582.784,1.88.365,2.518-.375s1.015-1.732,1.841-2.253c1.537-.97,4.325-.213,4.779-1.972.247-.957-.558-1.839-.821-2.792-.41-1.489.552-3.008,1.657-4.089s2.437-2.011,3.092-3.41c1.095-2.338-.053-5.118.387-7.662s2.464-5.092,1.4-7.457c-.415-.928-1.259-1.626-1.609-2.58-.336-.922-.2-2.041-.825-2.8a7.42,7.42,0,0,0-1.524-1.062c-1.675-1.208-1.72-3.62-2.36-5.583-1.166-3.577-4.521-5.9-6.841-8.863a5.24,5.24,0,0,1-1.015-1.8,12.706,12.706,0,0,1-.18-2.41,6.138,6.138,0,0,0-3.049-4.777,3.247,3.247,0,0,1-1.047-.734,2.961,2.961,0,0,1-.373-1.757,9.9,9.9,0,0,0-2.521-6.258q-1.527,7.555-3.053,15.108a4,4,0,0,1-2.049.795q-.44-1.93-.882-3.859a8.633,8.633,0,0,1-4.281-.508c-1.3-.641-2.258-2.241-1.675-3.572.318-.727,1.04-1.536.565-2.172,1.3.488,2.435-1.622,1.483-2.633-1.5-1.591-3.137.715-4.681.632C553.108,305.9,551.393,303.217,549.332,304.43Z" transform="translate(121.647 60.34)"/><line class="b" y1="0.331" x2="0.497" transform="translate(695.102 382.336)"/><path class="a" d="M563.062,365.982c-.01.373-.021.827.3,1.018a.946.946,0,0,0,.434.1c1.093.074,2.475-.07,2.849-1.1.3-.827-.269-1.787.038-2.612a3.854,3.854,0,0,1,.449-.743,2.585,2.585,0,0,0,.438-2.063,1.512,1.512,0,0,0-1.622-1.133c-.391.075-.721.336-1.1.438-1.232.325-4.768-2.312-4.463.643.1.928,1.375,1.656,1.848,2.411A5.482,5.482,0,0,1,563.062,365.982Z" transform="translate(135.51 77.319)"/><path class="b" d="M594.571,370.84a7.83,7.83,0,0,0-2.407.914c-.687.525-1,1.683-.325,2.227.516.418,1.283.248,1.915.451,1.417.453,1.545,2.38,1.4,3.86.993.425,2.072-.444,2.621-1.374s.926-2.046,1.844-2.615c.6-.37,1.383-.473,1.826-1.019.623-.769.212-1.923.443-2.886.58-2.416,4.06-2.627,4.99-4.983.647-1.639,1.827-4.846-.112-5.185C601.928,359.384,598.762,369.453,594.571,370.84Z" transform="translate(144.792 77.639)"/><path class="b" d="M606.693,366.315a.672.672,0,0,0,.069.373c.171.269.6.161.843-.04,1.419-1.163.56-3.647,1.649-5.124a6.966,6.966,0,0,1,1.372-1.187,6.673,6.673,0,0,0,2.484-5.074,6.735,6.735,0,0,1-2.215.882,2.279,2.279,0,0,1-2.154-.757c-.582-.792-.387-1.955-.937-2.77-.635-.937-2.006-1.071-2.77-1.907a5.392,5.392,0,0,1-.875-2.934c-.158-1.026-.688-2.2-1.717-2.337-2.035,2.335,1.963,5.26,2.481,7.253.5,1.91-.487,2.445-1.252,4.048-.8,1.668-1.327,2.985.256,4.282,1.017.834,1.858-.438,2.744,1.106C607.18,363.016,606.7,365.327,606.693,366.315Z" transform="translate(147.897 73.24)"/><path class="b" d="M523.649,255.3a2.971,2.971,0,0,0-.219,1c.02,1.182,1.384,1.983,1.484,3.162.04.469-.131.931-.129,1.4s.288,1.014.76,1.019c.406,0,.688-.38.979-.665s.83-.467,1.058-.13a.79.79,0,0,1,.073.523,11.106,11.106,0,0,1-1.01,3.643,1.611,1.611,0,0,0,1.85-.8,4.706,4.706,0,0,0,.491-2.114,2.27,2.27,0,0,0-.1-1.075c-.221-.5-.763-.771-1.121-1.187a2.885,2.885,0,0,1-.223-2.9c.371-.95,1-1.784,1.371-2.732a1.515,1.515,0,0,0,.142-.773,2.722,2.722,0,0,0-.323-.754,7.865,7.865,0,0,1-.46-1.985C527.138,245.093,524,254.272,523.649,255.3Z" transform="translate(124.49 44.464)"/><path class="b" d="M533.834,261.382a3.363,3.363,0,0,1-1.171,2.917,1.905,1.905,0,0,0-.519.515c-.4.739.532,1.445,1.2,1.952a4.864,4.864,0,0,1,.51,6.987,2.27,2.27,0,0,0-.477.57,1.684,1.684,0,0,0-.125.714,8.844,8.844,0,0,0,.579,3.25c-1.1.549-2.466-.356-2.885-1.509a7.24,7.24,0,0,1,.023-3.637,1.832,1.832,0,0,0-.121-1.328,1.307,1.307,0,0,0-1.932.042,4.512,4.512,0,0,0-.9,1.994,2.868,2.868,0,0,1-1.156,1.818,4.64,4.64,0,0,1,4.03-5.307,4.207,4.207,0,0,0,1.618-.236c.49-.249.782-.979.376-1.35-.478.016-.667-.621-.626-1.1s.123-1.056-.262-1.337-.975.01-1.236.423-.344.919-.6,1.336a1.882,1.882,0,0,1-1.9.843,2.912,2.912,0,0,1,1.584-2.657,3.292,3.292,0,0,1-2.1-1.661c-.339-.857.256-2.067,1.174-1.993q.493,1.264.983,2.528a1.627,1.627,0,0,0,2.132-.734,3.889,3.889,0,0,0,.265-2.461c.928.475,1.993-.831,1.613-1.8a1.642,1.642,0,0,0-1.248-1.017A3.979,3.979,0,0,1,533.834,261.382Z" transform="translate(125.493 47.49)"/><path class="b" d="M426.078,141.681c.632-.451.152-1.545-.584-1.792a6.658,6.658,0,0,0-2.312.018c-.775.023-1.711-.344-1.8-1.117a1.377,1.377,0,0,1,.121-.67c.541-1.287,2.07-1.8,3.068-2.776,1.553-1.519,1.689-4.019,3.051-5.71,1.885-2.342,5.447-2.444,7.862-4.234.76-.562,1.393-1.285,2.18-1.807,2.042-1.352,4.691-1.126,7.14-1.192a26.388,26.388,0,0,0,9.362-1.992c-.627,2.972-4.186,4.085-7.131,4.829q-2.972.75-5.879,1.732a21.856,21.856,0,0,0-6.944,3.456,9.069,9.069,0,0,0-3.582,6.648c-.018,1.365,1.613,4.313.708,5.372C430.277,143.688,427.241,142.2,426.078,141.681Z" transform="translate(94.037 6.089)"/><path class="b" d="M483.269,110.932q-1.114.356-2.227.714a3,3,0,0,0,3.3,1.2c1.259-.387,2.485-1.618,3.667-1.037.305.567-.391,1.131-.957,1.44s-1.166,1.043-.706,1.494a.989.989,0,0,0,.412.212c2.59.831,5.546.125,8.023,1.248a5.543,5.543,0,0,0,2.393.854c.856-.038,1.657-1.119,1.066-1.74-.384-.405-1.171-.412-1.324-.949-.282-.985,2.04-1.383,1.587-2.3l-5.039.156c-.571.017-1.27-.038-1.517-.552-.14-.292-.087-.662-.279-.921-.236-.318-.705-.309-1.1-.269l-2.663.269c1.944-.2,4.487-1.23,6.436-1.7C491.757,106.121,484.281,106.474,483.269,110.932Z" transform="translate(111.841 2.134)"/><path class="b" d="M502.563,113.645c-.042-1.092-1.55-1.571-2.537-1.1a7.076,7.076,0,0,0-2.251,2.335,23.051,23.051,0,0,1-2.745,2.806l7.632-.986c.984-.126,2.163-.409,2.457-1.356a7.39,7.39,0,0,0-3.328-1.228" transform="translate(116.015 3.688)"/><path class="b" d="M553.308,126.575a4.363,4.363,0,0,1,.983-.556c1.449-.421,2.692,1.719,4.16,1.371.621-.148,1.061-.712,1.656-.937,1.4-.531,2.951.928,4.276.029,1.726-1.172.983-2.177-.375-2.707-1.246-.487-3.177.025-4.581-.378A25.1,25.1,0,0,1,556.5,122.1c-2.316-.988-5.982-2.645-7.558.34A3.15,3.15,0,0,0,553.308,126.575Z" transform="translate(131.998 6.189)"/><path class="b" d="M569.2,125.126a10.259,10.259,0,0,0-3.492-1.871,1.7,1.7,0,0,0-.556-.1,1.151,1.151,0,0,0-.886,1.514,1.966,1.966,0,0,0,1.545,1.172,7.848,7.848,0,0,0,2.027-.012,14.455,14.455,0,0,1,4.246.339c.261-.891-.615-1.785-1.533-1.909a4.9,4.9,0,0,0-2.657.676" transform="translate(136.658 6.909)"/><path class="b" d="M558.792,128.836a8.992,8.992,0,0,0-2.5-.774c-.458-.071-1.133.116-1.022.566.048.193.238.312.413.406a17.431,17.431,0,0,0,3.745,1.5c.6.162,1.433.179,1.637-.409a1.11,1.11,0,0,0-.5-1.123,3.34,3.34,0,0,0-3-.613" transform="translate(133.988 8.368)"/><path class="a" d="M363.561,115.98c1.1.649,2.449.773,3.591,1.357a4.969,4.969,0,0,1,2.584,3.5,6.9,6.9,0,0,0,.584,2.673,2.549,2.549,0,0,0,3.551.391,4.395,4.395,0,0,0,1.5-3.56c0-1.049-.188-2.267.565-3a3.016,3.016,0,0,1,1.191-.612,5.4,5.4,0,0,1,2.584-.4,1.925,1.925,0,0,1,1.689,1.74c-.021,1.062-1.211,2.048-.741,3l5.04-.07c.582-.588.173-1.646-.514-2.107a14.344,14.344,0,0,0-2.3-.9c-.757-.335-1.467-1.1-1.257-1.9.318-1.206,2.031-1.054,3.276-1.009a6.239,6.239,0,0,0,6.193-6.327c-2.949-.449-4.406,2.775-6.852,3.617-2.022.7-3.129-.479-4.981-.306-1.972.186-2.442,1.445-3.965,1.81-2.368.566-4.073-.606-6.526-.932C366.863,112.687,358.549,113.032,363.561,115.98Z" transform="translate(76.311 2.598)"/><path class="b" d="M366.79,104.5a14.749,14.749,0,0,1-8.663,6.744c-1.7.48-3.594.705-4.879,1.92a8.018,8.018,0,0,0-1.672,2.8,17.051,17.051,0,0,0-1.745,6.182,5.8,5.8,0,0,0,2.847,5.414c-2.7,1.339-2.967,5.808-.441,7.455-1.031,2.573-5.349,1.136-7.388,3.016-1.583,1.459-.97,4.077-.016,6.008s2.165,4.093,1.4,6.1q-4.347-1.694-8.7-3.39c-1.093,2.363,2.053,5.292,4.331,4.033-2.194,3.946-8.044,3.168-12.154,5.035-4.387,1.992-6.747,7.118-11.182,9-2.184.927-4.665.967-6.84,1.913s-4.055,3.458-3.031,5.6a2.525,2.525,0,0,1,.46,1.3c-.057.491-.5.828-.871,1.149-3.563,3.037-3.6,8.428-3.354,13.1-1.27.95-3.063-.341-3.763-1.765s-1.059-3.169-2.4-4.019-3.125-.44-4.586-1.043A7.1,7.1,0,0,1,291.187,178q-2.166-3.426-4.334-6.85a16.551,16.551,0,0,1-2.8-6.167c-.34-2.249.471-4.839,2.492-5.887,1.427-.739,3.746-1.858,2.712-3.089a2.054,2.054,0,0,0-.924-.527l-7.858-2.792a6.88,6.88,0,0,1,7.9-4.407c1.185-1.9-1.557-3.976-3.791-3.938s-4.729.849-6.543-.458a7.992,7.992,0,0,0,.24-8.241,13.146,13.146,0,0,0-6.458-5.565,9.715,9.715,0,0,0-3.728-.947c-2.039-.03-3.994.906-6.034.919-2.888.019-5.523-1.854-7.179-4.22a26.957,26.957,0,0,1-3.325-7.957,7.253,7.253,0,0,0,7.555-.186,5.472,5.472,0,0,0,1.64-7.046l8.819-1.975a6.652,6.652,0,0,0,2.148-.747,21.941,21.941,0,0,0,2.122-2c1.431-1.2,3.4-1.453,5.256-1.658l14.885-1.655a7.783,7.783,0,0,1,2.86.036c2.438.649,4.65,3.6,6.839,2.349a3.916,3.916,0,0,0-.788-2.716c2.789-1.283,6.014-.889,9.085-.844,6.188.091,12.31-1.341,18.5-1.432a42.9,42.9,0,0,1,17.723,3.562,16.77,16.77,0,0,1-6.206,2.633,9.478,9.478,0,0,1,4.255.723c-1.066-.449-5.887,3.355-6.654,4.041,2.623,2.039,8.386-2.181,11.1-3.473C355.821,105.048,361.061,103.65,366.79,104.5Z" transform="translate(43.36)"/><path class="a" d="M337.2,156.109a14.415,14.415,0,0,0-3.834,2.325c-1.062.9-2.249,2.032-3.612,1.759-1.385-.278-2.037-1.819-2.645-3.094s-1.84-2.649-3.176-2.19q1.091-1.311,2.179-2.623l-5.191-.756a1.813,1.813,0,0,1-1.161-.469c-.649-.758.319-1.881,1.276-2.164a6.529,6.529,0,0,1,6.144,1.889c.676.652,1.537,1.476,2.4,1.11.574-.243.817-.9,1.2-1.393.918-1.174,2.633-1.328,4.115-1.156,2.5.292,7.493-1.541,8.47,1.452C344.456,154.155,339.207,155.286,337.2,156.109Z" transform="translate(63.649 14.531)"/><path class="a" d="M185.377,139.715c-6.543,2.723-13.329,5.434-20.415,5.348a53.411,53.411,0,0,1-9.129-1.169c-6.567-1.227-13.2-2.475-19.311-5.177a15.122,15.122,0,0,0-5.052-1.667,11.556,11.556,0,0,0-5.7,1.568,54.263,54.263,0,0,0-14.6,10.607A17.3,17.3,0,0,1,122.293,156a4.666,4.666,0,0,1-5.949-1.97,4.96,4.96,0,1,0-.927,9.7,6.522,6.522,0,0,1,4.307-2.51q1.2,2.014,2.39,4.026c-1.391,1.678-3.836,1.852-5.961,2.333s-4.52,1.98-4.276,4.146c.409,3.608,7.339,3.912,7.035,7.531.1-1.228,14.424-2.185,7.5,6.036a5.363,5.363,0,0,1-4.4,2.074,3.661,3.661,0,0,1-.676,3.9c-1.039.937-3.075.6-3.4-.76-1.111,2.372-4.169,2.933-6.776,3.191q-.464,1.574-.926,3.145a2.127,2.127,0,0,0-3.067-1.387,2.189,2.189,0,0,0-.209,3.393c.954.779,2.344.591,3.554.361.452-.087.967-.219,1.162-.636a2.081,2.081,0,0,0,.092-.834,3.609,3.609,0,0,1,2.538-2.956,30.914,30.914,0,0,1,4.037-.856,15.3,15.3,0,0,0,5.99-3.16c1.931-1.554,3.667-3.394,5.856-4.556.839-.445,1.733-.786,2.541-1.285,5.939-3.682,2.151-10.057,10.938-11.153a2.741,2.741,0,0,1-1.887,2.815c2.814,2.08,5.895-4.469,9.193-3.3.928.33,1.531,1.214,2.329,1.792,1.481,1.071,3.462,1,5.282,1.152A18.736,18.736,0,0,1,174.538,189.2c3.172-.936,5.813,2.451,7.392,5.359q3.911,7.2,7.82,14.394a42.2,42.2,0,0,1,4.186,9.491c1.23,4.8.735,9.913,1.884,14.737s4.863,9.732,9.82,9.6a62,62,0,0,0,6.492,21.725c-1.693,1.719,1.032,4.267,3.351,4.942s5.369,2.39,4.357,4.582c2.734-3.042-.747-7.631-4.077-10.008s-7.236-6.314-5.153-9.835c1.136-1.145,3.125.191,3.66,1.713s.487,3.324,1.561,4.526c.941,1.054,2.466,1.319,3.68,2.041,4.4,2.615,3.48,10.045,7.742,12.884,1.557,1.036,3.6,1.278,4.953,2.573a12.964,12.964,0,0,1,2.054,3.446c2.238,4.185,6.741,6.554,10.986,8.679l3.712,1.859,21.264,10.646a2.771,2.771,0,0,0,2.176.408c2.914-1.152-3.037-6.334-.562-8.254l-10.443-5.035a5.933,5.933,0,0,0,.614-7.889,3.584,3.584,0,0,0,2.621-2.68c-1.533-1.594-4.339-.275-5.53,1.588s-1.67,4.208-3.275,5.73c-3.633,3.445-10.061-.209-11.466-5.014s.2-9.9.739-14.877c.216-2.011.387-4.3,1.979-5.551,3.641-2.851,9,3.162,13.226,1.282,1.618-.719,2.571-2.442,4.1-3.343,2.627-1.553,6.2-.113,8.018,2.337s2.329,5.6,2.786,8.619c.86,1.41,3.249-.148,3.115-1.793s-1.491-2.879-2.385-4.267a8.559,8.559,0,0,1,2.207-11.23c3.072-2.148,8.133-2.988,8.332-6.731.13-2.419-2.17-4.4-2.264-6.823-.083-2.131,1.53-3.9,3.034-5.414L300,220.807c1-1,2.206-2.084,3.612-1.926s2.189,2.483.852,2.943c5.013.193,11.734-1.018,12.135-6.019a19.251,19.251,0,0,1-7,3.913,9.4,9.4,0,0,1,1.9-6.749c-1.867-3.219-6.336-4.1-9.89-3s-6.4,3.726-9.119,6.267c4.084-4.818,9.549-8.855,15.822-9.589,2.363-.277,4.9-.112,6.952-1.309,2.86-1.667,5.392-5.867,8.273-4.239l-6.313,11.077,6.808-.506a9.473,9.473,0,0,1,1.278,5.239c2.776-.192,6.6-2.023,5.356-4.515-.63-1.266-2.273-1.583-3.368-2.48-3-2.462-.665-7.52-2.17-11.1-.753-1.79-2.4-3.016-3.9-4.247a48.48,48.48,0,0,1-14.381-19.831c-.731,1.827-1.532,3.749-3.11,4.922s-4.187,1.192-5.226-.478a11.723,11.723,0,0,1-.834-3.108c-.673-2.35-2.919-3.838-5-5.118-2.527-1.554-5.5-3.167-8.309-2.2s-3.452,6.016-.523,6.48c-2.729.1-2.64,4.339-1.083,6.584s3.743,5.04,2.251,7.328c-1.323,2.027-4.676,1.828-6.008,3.851-1.284,1.949.112,4.46,1.088,6.58s.95,5.455-1.339,5.908c-1.957.387-3.373-1.879-3.739-3.838-.575-3.085-.169-6.43-1.61-9.217s-6.07-4.1-7.52-1.318a9.048,9.048,0,0,0-5.905-6.079c-2.285-.714-4.829-.5-7-1.51-3.246-1.515-4.7-5.248-5.862-8.637,4.237-2.423,8.753-5.151,10.642-9.651a9.4,9.4,0,0,1,1.8-3.465c.863-.808,2.092-1.1,3.051-1.785s1.574-2.206.71-3.014a6.178,6.178,0,0,1,4.207-.813c2.46,3.337-5.086,9.025-1.532,11.164,1.915,1.153,3.984-1.214,4.974-3.217l4.643,1.872c2-1.622-.348-4.722-2.633-5.9s-5.183-3.3-4.035-5.6l6.138-.11a4.655,4.655,0,0,0-3.017-4.564l3.162-4.874a4.056,4.056,0,0,0-3.893-1.187,40.075,40.075,0,0,0,11.94-3.737,135.186,135.186,0,0,1,8.651,10.97,3.549,3.549,0,0,1,.861,2.027c-.035,1.632-2.007,2.329-3.433,3.127s-2.286,3.325-.7,3.728c-.217,1.208-2.029,1.2-3.05.515s-1.957-1.753-3.181-1.681c-2.315.134-1.933,4.217.28,4.907s4.48-.741,6.36-2.1a41.687,41.687,0,0,0,15.032,8.675,4.6,4.6,0,0,1-3.455-5.14,25,25,0,0,1,7.293,3.46c1.887-2.294-.531-5.63-3-7.276s-5.57-3.685-5.181-6.631a9.108,9.108,0,0,1,8.027,4.615l3.69-5.244c-1.391-4.6-10.263-3.191-11.186-7.906-.179-.91,0-1.954-.57-2.686-.886-1.136-2.659-.579-4.1-.625-5.043-.157-8.1-8.6-12.749-6.654,1.944-3.643-3.588-8.255-6.822-5.687,1.776.661,3.708,1.579,4.356,3.36s-1.24,4.217-2.893,3.289c-1.672-.939-.874-3.585-1.8-5.266-1.123-2.046-4.5-1.639-5.862.258s-1.189,4.482-.645,6.752l-3.369-.083a18.069,18.069,0,0,1,1.77-9.277c-1.317-1.963-4.307-.078-5.756,1.79-1.522,1.963-3.089,4.024-3.564,6.461s.521,5.357,2.844,6.235c1.491.564,3.212.2,4.7.788,3.391,1.336,2.055,7.666-1.588,7.517a13.213,13.213,0,0,1-1.9-6.143,12.289,12.289,0,0,0-4.751,2.653,45.233,45.233,0,0,0-7.31-12.135l2.177-4.211c2.921,1.278,6.666-1.85,5.929-4.953-2.429-.68-4.981-1.366-7.44-.81s-4.735,2.8-4.393,5.3c.206,1.5,1.27,2.742,1.662,4.2s-.484,3.5-1.976,3.256c-.779,3.55,6.743,3.636,7.079,7.254.238,2.538-3.208,3.537-5.757,3.5a11.442,11.442,0,0,1-.321,7.519,9.005,9.005,0,0,1,2.345-10.982,7,7,0,0,0-9.339-1.955,8.3,8.3,0,0,0,4.808,3.45l-3.093,3.586c-2.233-1.606-5.292-.345-8.038-.188s-6.084-2.876-4.145-4.827c-1.652-1-3.893-1.339-5.461-.214s-1.7,3.981.051,4.8c-3.649.937-9.7-5.773-12.336-.631-1.652-5.231-4.309-6.791-9.546-7.058-3.476-.177-13.78-2.751-15.555.17C186.764,143.43,185.309,139.745,185.377,139.715Z" transform="translate(0 7.884)"/><path class="b" d="M175.781,126.1c-1.977.212-3.08,2.429-3.333,4.4s-.061,4.091-1.032,5.826a4.211,4.211,0,0,0-.628,1.32c-.221,1.388,1.579,2.275,2.966,2.053,4.041-.645,6.578-6.166,10.612-5.481l.121,3.249a26.2,26.2,0,0,0,7.858-1.136c.773.5.34,1.816-.486,2.225a7.617,7.617,0,0,1-2.721.356c-.918.084-1.963.582-2.061,1.5a11.818,11.818,0,0,1,5.443-.687c1.813.347,3.549,1.855,3.49,3.7a47.685,47.685,0,0,0-7.713.28c1.407,1.672,3.963,1.474,6.135,1.709s4.752,1.976,3.984,4.022a10.916,10.916,0,0,1,11.8-2.5,16.494,16.494,0,0,0,2.971,1.183,2.767,2.767,0,0,0,2.872-.924c.586-.895,0-2.411-1.065-2.376a3.585,3.585,0,0,0,2.921-2.653,5.22,5.22,0,0,1-6.208-2.856c-.871-2.1-.353-4.792-1.915-6.44,1.362.41,2.718-1.211,2.389-2.6a3.354,3.354,0,0,0-3.243-2.285,2.968,2.968,0,0,0-2.493,1.045,1.746,1.746,0,0,0,.361,2.466q-1.646-.8-3.29-1.6c-.436,2.685,4.84,4.289,3.6,6.711-.789,1.544-3.475.569-3.793-1.136-.209-1.122.049-2.615-.978-3.111-1.959-.945-3.389,3.859-5.261,2.751q.177-1.617.353-3.232a8.814,8.814,0,0,0-6.656,2.338q.329-1.566.657-3.132c-2.618-1.453-5.214,3.694-8.042,2.716,2.721.94,8.812-4.374,4.021-6.624-1.148-.54-3.543.3-4.82.212C180.362,127.233,178.031,125.859,175.781,126.1Z" transform="translate(19.253 7.779)"/><path class="b" d="M186.772,117.595c-1.858-.928-4.119.079-5.695,1.432s-2.886,3.086-4.768,3.965a5.537,5.537,0,0,0-2.5,1.485,87.027,87.027,0,0,0,9.355-.634,4.98,4.98,0,0,1-1.483,2.781c1.454.531,2.666-1.3,2.864-2.834a1.887,1.887,0,0,1,.5-1.314,2.33,2.33,0,0,1,1.106-.3,2.711,2.711,0,0,0,2.314-2.785,2.022,2.022,0,0,0-2.973-1.465" transform="translate(20.161 5.142)"/><path class="b" d="M193.785,125.351a1,1,0,0,0,.482-1.109,4.03,4.03,0,0,1-3.994-3.484,2.23,2.23,0,1,0-1.6,4.073l-5.648,2.415c3.6,1.939,7.863-2.283,11.86-1.436,0,.483,0,.966-.005,1.449a6.166,6.166,0,0,0-4.546,2.127,13.791,13.791,0,0,0,8.553-2.083,5.99,5.99,0,0,1,2.255-1.106,7.968,7.968,0,0,1,2.2.232c1.737.245,3.941-.739,3.878-2.493a9.24,9.24,0,0,0-3.656-.447,3.915,3.915,0,0,0-5.307-2.754,5.663,5.663,0,0,0,1.962,4.13,3.91,3.91,0,0,1-4.393.444c-.648-.37-1.244-.948-1.989-.95-.8-.005-1.839.574-2.245-.116" transform="translate(22.911 6.091)"/><path class="b" d="M195.02,115.938a15.73,15.73,0,0,0-8.62,1.433l4.313,1.946a1.842,1.842,0,0,0,1.937.034l4.158-1.785-.721-1.054a1.119,1.119,0,0,0,1.592-.937,1.747,1.747,0,0,0-1.3-1.622,4.206,4.206,0,0,0-2.212.073,15.951,15.951,0,0,0-2.477.805,3.374,3.374,0,0,0,2.207,1.8q.023.524.045,1.049" transform="translate(23.917 4.126)"/><path class="b" d="M211.267,116.967c-.636.032-1.017-.725-1.045-1.362a4.107,4.107,0,0,0-.205-1.88c-.774-1.366-2.868-.354-4.418-.6A14.263,14.263,0,0,1,203.043,112c-.875-.325-2.116-.143-2.368.756-.282,1.006.948,1.815,1.993,1.836s2.12-.351,3.111-.021a.972.972,0,0,1,.487.31c.738.984-1.913,1.7-1.668,2.908.121.592.862.778,1.463.841l2.676.287a3.782,3.782,0,0,0,2.7-.387c.747-.561.765-2.013-.142-2.237" transform="translate(28.165 3.536)"/><path class="b" d="M215.533,123.733a1.513,1.513,0,0,0-.449-2.088,3.946,3.946,0,0,0-2.3-.53,26.072,26.072,0,0,0-6.931.891,4.632,4.632,0,0,1-2.132.257,1.428,1.428,0,0,1-1.2-1.531c-.967,1.085.2,2.893,1.6,3.267s2.893-.057,4.344.021,3.116,1.076,2.963,2.523a2,2,0,0,0-.032,1.024,1.069,1.069,0,0,0,1.069.471,3.212,3.212,0,0,0,2.708-4.172,1.114,1.114,0,0,1-1.154-.625,2.885,2.885,0,0,0,1.718-1.99,5.851,5.851,0,0,0-4.883.379" transform="translate(28.62 6.185)"/><path class="b" d="M214.1,129.75c.8-.583.274-2.02-.68-2.3a3.219,3.219,0,0,0-2.745.831q-.076,1.225-.149,2.45a3.645,3.645,0,0,0-2.763.539,4.067,4.067,0,0,1,2.857,2.966,2.816,2.816,0,0,1-4.022-1.222c-.277-.695-.377-1.628-1.088-1.859-1-.325-1.592,1.267-1.127,2.216,1.226,2.51,4.963,2.346,7.046,4.206.749.669,1.887,1.623,2.522.845.506-.618-.152-1.493-.762-2.007a3.927,3.927,0,0,0,2.194-.162,1.428,1.428,0,0,0,.771-1.836,3.055,3.055,0,0,0-.847-.783,3.347,3.347,0,0,1-.928-3.848l-1.195-.505" transform="translate(29.234 8.166)"/><path class="b" d="M247.539,131.12a11.377,11.377,0,0,0-8.512-1.271c-2.066.514-4,1.617-6.118,1.765-3.1.217-6.071-1.728-7.763-4.338,2.351-1.611,5.791,1.549,8.27.139.713-.406,1.21-1.143,1.959-1.476a4.265,4.265,0,0,1,2.475-.051l11.905,2.132a3.038,3.038,0,0,0-2.742-3.671l6.238-2.511a5.215,5.215,0,0,0,2.744-1.883c.571-.976.166-2.559-.956-2.7a85.283,85.283,0,0,0,13.841-6.247q-.666-1.153-1.333-2.306a12.03,12.03,0,0,0,8.66-2.557,29.609,29.609,0,0,0-10.278.961,30.476,30.476,0,0,0,16.885-2.744c-1.874-1.631-5.281.493-7.124-1.171-.552-.5-.827-1.252-1.391-1.739a4.211,4.211,0,0,0-2.593-.731,171.975,171.975,0,0,0-28.074.792c-1.536.17-3.476.763-3.563,2.306l-6.692-.275a6.19,6.19,0,0,1-7.231,1.919q-.836,1.328-1.672,2.654a8.072,8.072,0,0,0,5.386,1.366,4.236,4.236,0,0,0,6.632.924c.78,2.685,4.8,2.181,7.178.717s5.44-3.334,7.671-1.649a15.973,15.973,0,0,1-10.5,3.286l2.811,3.382c-2.3.143-4.338-1.319-6.348-2.442s-4.646-1.913-6.5-.552l5.039,4.111-13.885-7.314c-1.357-.714-2.924-1.446-4.363-.913s-1.87,3.045-.391,3.447a3.162,3.162,0,0,0-2.431,2.253,21.2,21.2,0,0,1,7.89,2.231l-3.462,1.111,7.907,2.575a2.1,2.1,0,0,0,1.645.071c.5-.275.676-.884.954-1.382a3.314,3.314,0,0,1,4.415-1.185q-.5,1.194-1,2.388l3.736.021q.033,1.024.064,2.05a15.166,15.166,0,0,0,5.449-.152c-.653,2.422-4.169,2.636-6.361,1.417s-3.92-3.308-6.332-3.991a11.689,11.689,0,0,0,3.55,4.605,19.281,19.281,0,0,0-9.635.921q-.45-.968-.9-1.937c-2.519,1.045-2.14,4.691-1.318,7.293a6.356,6.356,0,0,0,1,2.168c1.148,1.406,3.2,1.568,5.013,1.622l8.192.235C239.368,134.9,247.685,136.689,247.539,131.12Z" transform="translate(32.382 0.14)"/><path class="b" d="M218.626,124.18c.748-.515,2.1-.079,2.447-.921.26-.634-.417-1.236-1.014-1.572s-1.307-.856-1.144-1.52a2.357,2.357,0,0,1-1.546-.319l3.424-.9c.435-.114.987-.508.73-.876a.658.658,0,0,0-.4-.218,7.286,7.286,0,0,1-2.1-.589c-.622-.384-.969-1.349-.427-1.84l-1.174-.106-.051-.932a55.456,55.456,0,0,1-6.049-.495,2.3,2.3,0,0,0,2.384,2.642.955.955,0,0,1,.653.049c.164.114.213.328.3.508a1.193,1.193,0,0,0,1.515.545,2.315,2.315,0,0,1-.766.985,6.016,6.016,0,0,0,2.1.66,4.832,4.832,0,0,1-1.985.941l.893.725-2.29.045c-.232.719.467,1.407,1.169,1.687.776.309,4.555,2.714,2.289,3.786-1.287.609-1.826-1.514-1.371-2.325.719,1.665.5,3.982,1.761,5.438a1.862,1.862,0,0,0,3.212-.142C222.741,127.015,219,126.289,218.626,124.18Z" transform="translate(31.343 4.143)"/><path class="b" d="M234.626,267.773c-.9,2.4,1.994,5.213,4.372,4.243a10.471,10.471,0,0,1,2.013-.915c2.042-.357,3.216,2.212,3.649,4.241.495,2.319.978,4.8.113,7.007-1.036,2.647-3.872,4.5-4.2,7.319-.271,2.307,1.25,4.689.47,6.876-.354.992-1.144,1.78-1.515,2.767-.666,1.767.129,3.717.911,5.436q3.9,8.569,7.807,17.142a8.661,8.661,0,0,0,2.335,3.481c.893.682,2.016.989,2.963,1.593a11.077,11.077,0,0,1,3.377,4.269,34.544,34.544,0,0,1,3.989,9.323c.954,4.529.056,9.219-.841,13.759q-1.967,9.958-3.935,19.916-2.166,10.955-4.33,21.912a6.935,6.935,0,0,0,3.111-4.261,21.436,21.436,0,0,1-2.607,13.9l-.627-5.379a28.708,28.708,0,0,0-2.65,12.215,3.028,3.028,0,0,0,.595,2.129,6.788,6.788,0,0,0,1.907.962,3.079,3.079,0,0,1,1.239,4.02l2.193.508c1.132.9-1.54,2.151-1.53,3.6a2.136,2.136,0,0,0,.921,1.436l6.2,5.464a10.262,10.262,0,0,0,4.421.626,3.508,3.508,0,0,0,3.084-2.821c.188-2.053-1.946-3.424-3.327-4.955-2.142-2.376-2.664-5.873-2.124-9.025a31.943,31.943,0,0,1,3.458-8.911l-2.812-1.058c.07-2.106,2.218-3.412,3.576-5.023a7.876,7.876,0,0,0-.583-10.409q1.542-1.089,3.086-2.175l2.532,4.045a6.44,6.44,0,0,0,1.84-7.33,8.81,8.81,0,0,0,10.5-7.615,1.9,1.9,0,1,1,1.184-3.436c-.527,1.367,1.034,2.858,2.488,2.679a4.064,4.064,0,0,0,3.032-2.867,28.562,28.562,0,0,0,.8-4.315,13.709,13.709,0,0,1,3-6.295c1.265-1.491,2.882-2.76,3.62-4.57a19.073,19.073,0,0,0,.774-4.209,13.411,13.411,0,0,1,8.542-10.264c.182,2.059,3.436,1.635,4.961.238a13.8,13.8,0,0,0,4.285-8.023c.408-2.681.047-5.574,1.315-7.97a16.012,16.012,0,0,0,1.658-3,13.56,13.56,0,0,0,.178-2.936c.278-5.273,5.926-9.436,5.268-14.675-.427-3.4-3.385-5.838-6.121-7.906-4.178-3.156-8.618-6.425-13.814-7.074-3.3-.412-6.849.24-9.816-1.262a2.814,2.814,0,0,0,2.322-2.779,8.2,8.2,0,0,0-1.062-3.777q-.565-1.213-1.132-2.428c-1.531-3.286-4.045-7.143-7.633-6.627-1.067.153-2.238.689-3.149.109-.834-.532-.926-1.691-1.378-2.57-1.771-3.445-8.477-2.039-9.494-5.775-.265-.974-.044-2.154-.744-2.88a2.967,2.967,0,0,0-2.309-.569l-11.131.409a4.247,4.247,0,0,1-2.4,3.425l.58,2.562c-.3,1.517-2.853,1.332-3.52-.065s-.023-3.053.761-4.387,1.745-2.693,1.724-4.239c-1.684-.8-3.388.947-4.6,2.362s-3.6,2.644-4.711,1.147q.214,2.31.43,4.621a5.388,5.388,0,0,1-8.041-1.7,7.219,7.219,0,0,1-3.356,2.746c-1.415.4-3.267-.488-3.262-1.959a7.363,7.363,0,0,0,7.124,5.549" transform="translate(37.958 47.863)"/><path class="b" d="M231.76,243.363c1.134,1.141,2.885-.576,4.481-.775,1.541-.192,2.806,1.1,3.961,2.14s2.962,1.91,4.164.926a3.934,3.934,0,0,0,5.89,2.116c-.179.848.939,1.427,1.792,1.278s1.617-.688,2.48-.75a2.4,2.4,0,0,1,2.472,2.27c.027.458-.615.627-1.059.512s-.939-.345-1.33-.105c-.275.169-.382.51-.574.77-.695.948-2.159.587-3.269.2s-2.693-.493-3.116.6a25.5,25.5,0,0,0,10.592-.157c-.286.273-.075.8.286.961a1.834,1.834,0,0,0,1.161-.022l4.442-1.069a2.942,2.942,0,0,0,2.975.009l-.184,1.221a4.087,4.087,0,0,0,4.957-1.592l-7.388-1.223a14.633,14.633,0,0,1-5.122-1.51c-1.522-.895-2.732-2.346-4.411-2.892-2.345-.761-5.038.434-7.318-.505-2.209-.908-3.6-3.656-5.983-3.7a5.743,5.743,0,0,1-2.3-.051c-1.787-.819-1.552-2.515-3.867-1.631C235.057,240.553,232.15,243.755,231.76,243.363Z" transform="translate(37.453 41.818)"/><path class="b" d="M384.7,206.65a12.222,12.222,0,0,0-1.193,7.427c.762,4.361,4.146,8.393,3.191,12.719-1.476-.386-2.953-.771-4.429-1.146" transform="translate(82.366 31.824)"/><path class="b" d="M396.432,161.693c-.091.273-.205.534-.318.8" transform="translate(86.498 18.408)"/><path class="b" d="M396.841,161.017a4.617,4.617,0,0,0-1.147-2.84" transform="translate(86.372 17.359)"/></g></svg>